<?xml version="1.0" encoding="utf-8"?>
<!-- Generator: Adobe Illustrator 16.0.0, SVG Export Plug-In . SVG Version: 6.00 Build 0)  -->
<!DOCTYPE svg PUBLIC "-//W3C//DTD SVG 1.1//EN" "http://www.w3.org/Graphics/SVG/1.1/DTD/svg11.dtd">
<svg version="1.1" id="Layer_1" xmlns="http://www.w3.org/2000/svg" xmlns:xlink="http://www.w3.org/1999/xlink" x="0px" y="0px"
	 width="140.875px" height="38.25px" viewBox="-11.492 -3.625 140.875 38.25" enable-background="new -11.492 -3.625 140.875 38.25"
	 xml:space="preserve">
<g>
	<path fill="#EE4266" d="M93.304,20.828c0,1.915-1.55,3.465-3.464,3.465l0,0c-1.912,0-3.463-1.55-3.463-3.465l0,0
		c0-1.912,1.551-3.463,3.463-3.463l0,0C91.754,17.365,93.304,18.916,93.304,20.828L93.304,20.828z"/>
	<g>
		<path fill="#0F0D1D" d="M-9.797,32.038c-0.561-0.576-0.84-1.327-0.84-2.256V1.697c0-0.928,0.264-1.648,0.792-2.16
			c0.529-0.512,1.256-0.769,2.185-0.769H9.191c1.952,0,2.929,0.833,2.929,2.497c0,1.632-0.977,2.448-2.929,2.448H-4.54v9.218H8.23
			c1.952,0,2.929,0.832,2.929,2.497c0,1.632-0.977,2.449-2.929,2.449H-4.54v11.905c0,0.929-0.272,1.68-0.815,2.256
			c-0.545,0.576-1.281,0.865-2.209,0.865C-8.493,32.903-9.237,32.614-9.797,32.038z"/>
		<path fill="#0F0D1D" d="M36.268,9.426c0.544,0.512,0.816,1.2,0.816,2.064v18.627c0,0.833-0.28,1.506-0.84,2.017
			c-0.56,0.513-1.288,0.769-2.184,0.769c-0.864,0-1.553-0.239-2.064-0.72c-0.512-0.482-0.768-1.136-0.768-1.969v-1.199
			c-0.737,1.279-1.729,2.263-2.977,2.952C27.002,32.654,25.594,33,24.026,33c-5.761,0-8.641-3.234-8.641-9.698V11.491
			c0-0.864,0.271-1.552,0.815-2.064c0.544-0.512,1.265-0.768,2.161-0.768c0.928,0,1.664,0.256,2.208,0.768
			c0.544,0.512,0.816,1.2,0.816,2.064v11.858c0,1.665,0.336,2.897,1.009,3.697c0.672,0.8,1.728,1.2,3.168,1.2
			c1.664,0,3-0.553,4.009-1.656c1.008-1.105,1.512-2.568,1.512-4.394V11.491c0-0.864,0.271-1.552,0.816-2.064
			c0.544-0.512,1.264-0.768,2.161-0.768C34.988,8.658,35.723,8.915,36.268,9.426z"/>
		<path fill="#0F0D1D" d="M43.373,30.935c-1.024-0.606-1.536-1.473-1.536-2.592c0-0.641,0.175-1.16,0.528-1.56
			c0.352-0.4,0.784-0.603,1.296-0.603c0.544,0,1.296,0.257,2.256,0.77c1.024,0.479,1.96,0.849,2.809,1.103
			c0.848,0.257,1.928,0.386,3.24,0.386c1.345,0,2.393-0.223,3.146-0.672c0.751-0.447,1.128-1.073,1.128-1.873
			c0-0.543-0.153-0.977-0.457-1.296c-0.305-0.32-0.849-0.616-1.632-0.89c-0.785-0.271-1.977-0.583-3.577-0.936
			c-2.85-0.576-4.89-1.393-6.122-2.449c-1.232-1.056-1.848-2.512-1.848-4.368c0-1.407,0.416-2.68,1.248-3.816
			c0.832-1.136,1.976-2.016,3.433-2.641c1.456-0.624,3.112-0.936,4.969-0.936c1.344,0,2.64,0.168,3.889,0.504
			c1.248,0.336,2.368,0.825,3.361,1.464c1.024,0.641,1.535,1.488,1.535,2.544c0,0.641-0.175,1.177-0.527,1.608
			c-0.352,0.432-0.785,0.649-1.297,0.649c-0.352,0-0.696-0.073-1.031-0.217c-0.336-0.144-0.761-0.36-1.272-0.647
			c-0.929-0.479-1.729-0.841-2.4-1.081c-0.672-0.24-1.505-0.36-2.497-0.36c-1.184,0-2.121,0.24-2.809,0.72
			c-0.688,0.481-1.032,1.137-1.032,1.968c0,0.802,0.352,1.409,1.056,1.826c0.704,0.416,2.064,0.832,4.081,1.246
			c2.144,0.449,3.824,0.962,5.041,1.536c1.216,0.576,2.088,1.296,2.616,2.162c0.528,0.863,0.793,1.969,0.793,3.312
			c0,2.179-0.904,3.922-2.714,5.234C57.24,32.344,54.83,33,51.822,33C48.334,33,45.517,32.311,43.373,30.935z"/>
		<path fill="#0F0D1D" d="M66.993,3.498c-0.641-0.592-0.961-1.369-0.961-2.329s0.32-1.728,0.961-2.304
			C67.633-1.712,68.497-2,69.585-2c1.057,0,1.913,0.288,2.569,0.864c0.655,0.576,0.984,1.344,0.984,2.304s-0.321,1.737-0.961,2.329
			c-0.64,0.592-1.504,0.888-2.593,0.888C68.497,4.385,67.633,4.089,66.993,3.498z M67.449,32.158
			c-0.561-0.494-0.841-1.207-0.841-2.136V11.491c0-0.928,0.28-1.632,0.841-2.113c0.559-0.479,1.271-0.72,2.136-0.72
			c0.865,0,1.585,0.24,2.161,0.72c0.576,0.48,0.864,1.185,0.864,2.113v18.532c0,0.929-0.288,1.642-0.864,2.136
			c-0.576,0.496-1.296,0.745-2.161,0.745C68.721,32.903,68.008,32.654,67.449,32.158z"/>
		<path fill="#0F0D1D" d="M83.197,31.511c-1.81-0.992-3.209-2.416-4.2-4.273c-0.993-1.856-1.489-4.016-1.489-6.481
			c0-2.463,0.496-4.615,1.489-6.458c0.991-1.839,2.391-3.255,4.2-4.248c1.808-0.992,3.913-1.488,6.313-1.488
			s4.505,0.497,6.313,1.488c1.808,0.993,3.199,2.409,4.177,4.248c0.976,1.842,1.464,3.995,1.464,6.458
			c0,2.466-0.488,4.625-1.464,6.481c-0.978,1.857-2.369,3.281-4.177,4.273C94.015,32.504,91.91,33,89.51,33
			S85.004,32.504,83.197,31.511z M93.926,26.421c1.024-1.28,1.536-3.169,1.536-5.665c0-2.463-0.512-4.345-1.536-5.641
			c-1.024-1.296-2.496-1.944-4.416-1.944c-1.921,0-3.401,0.647-4.441,1.944c-1.041,1.296-1.561,3.178-1.561,5.641
			c0,2.496,0.512,4.385,1.537,5.665c1.023,1.281,2.496,1.922,4.416,1.922C91.414,28.343,92.902,27.702,93.926,26.421z"/>
		<path fill="#0F0D1D" d="M126.331,10.962c1.376,1.601,2.064,4.017,2.064,7.249v11.812c0,0.896-0.264,1.602-0.792,2.112
			c-0.527,0.513-1.257,0.769-2.184,0.769c-0.93,0-1.665-0.256-2.209-0.769c-0.545-0.511-0.816-1.217-0.816-2.112V18.548
			c0-1.823-0.345-3.152-1.032-3.985c-0.688-0.832-1.77-1.248-3.24-1.248c-1.729,0-3.113,0.544-4.153,1.633
			c-1.04,1.087-1.56,2.543-1.56,4.368v10.706c0,0.896-0.272,1.602-0.816,2.112c-0.544,0.513-1.28,0.769-2.209,0.769
			s-1.655-0.256-2.184-0.769c-0.528-0.511-0.793-1.217-0.793-2.112v-18.58c0-0.832,0.271-1.504,0.816-2.017
			c0.545-0.512,1.279-0.768,2.209-0.768c0.831,0,1.513,0.248,2.04,0.744c0.528,0.497,0.792,1.145,0.792,1.944v1.297
			c0.8-1.312,1.872-2.32,3.217-3.024s2.864-1.057,4.561-1.057C122.859,8.562,124.955,9.363,126.331,10.962z"/>
	</g>
</g>
</svg>
